<?xml version="1.0" standalone="no"?>
<!DOCTYPE svg PUBLIC "-//W3C//DTD SVG 20010904//EN"
 "http://www.w3.org/TR/2001/REC-SVG-20010904/DTD/svg10.dtd">
<svg version="1.0" xmlns="http://www.w3.org/2000/svg"
 width="563.000000pt" height="563.000000pt" viewBox="0 0 563.000000 563.000000"
 preserveAspectRatio="xMidYMid meet">
<metadata>
Created by potrace 1.11, written by Peter Selinger 2001-2013
</metadata>
<g transform="translate(0.000000,563.000000) scale(0.100000,-0.100000)"
fill="#000000" stroke="none">
<path d="M0 4820 l0 -400 2200 0 2200 0 0 400 0 400 -2200 0 -2200 0 0 -400z"/>
<path d="M4830 2820 l0 -2400 400 0 400 0 0 2400 0 2400 -400 0 -400 0 0
-2400z"/>
<path d="M0 3620 l0 -400 1200 0 1200 0 0 -800 0 -800 400 0 400 0 0 400 0
400 200 0 200 0 0 -1000 0 -1000 400 0 400 0 0 1200 0 1200 -600 0 -600 0 0
200 0 200 600 0 600 0 0 400 0 400 -2200 0 -2200 0 0 -400z"/>
<path d="M0 1620 l0 -1200 400 0 400 0 0 1200 0 1200 -400 0 -400 0 0 -1200z"/>
<path d="M1200 1620 l0 -1200 1000 0 1000 0 0 400 0 400 -600 0 -600 0 0 800
0 800 -400 0 -400 0 0 -1200z"/>
</g>
</svg>
